<svg width="42" height="42" viewBox="0 0 42 42" fill="none" xmlns="http://www.w3.org/2000/svg">
<path d="M22.0118 0.263592C21.3657 -0.0133196 20.6342 -0.0133196 19.9881 0.263592L2.00682 7.96984C1.06234 8.37462 0.449951 9.30333 0.449951 10.3309C0.449951 11.3585 1.06234 12.2872 2.00682 12.692L8.79933 15.603C9.04634 15.3232 9.35596 15.0952 9.71306 14.9422L19.9881 10.5386C21.292 9.97978 22.8022 10.5838 23.3609 11.8878C23.9198 13.1918 23.3157 14.7019 22.0118 15.2607L15.0062 18.2631L19.9881 20.3982C20.6342 20.6753 21.3657 20.6753 22.0118 20.3982L39.993 12.692C40.9375 12.2872 41.5499 11.3585 41.5499 10.3309C41.5499 9.30333 40.9375 8.37462 39.993 7.96984L22.0118 0.263592Z" fill="#60BCFF"/>
<path d="M3.81509 19.0563L8.15617 20.9167V31.4527C7.27568 31.2531 6.37616 31.1036 5.46081 31.0078C4.25409 30.8812 3.30047 29.9277 3.17393 28.7209C3.07123 27.7414 3.01868 26.7478 3.01868 25.7429C3.01868 23.44 3.29459 21.2006 3.81509 19.0563Z" fill="#60BCFF"/>
<path d="M19.2017 37.489C17.4733 35.7947 15.4814 34.3703 13.2937 33.283V23.1184L17.9643 25.1202C19.9028 25.951 22.0971 25.951 24.0357 25.1202L38.1849 19.0563C38.7053 21.2006 38.9812 23.44 38.9812 25.7429C38.9812 26.7478 38.9285 27.7414 38.826 28.7209C38.6994 29.9277 37.7459 30.8812 36.5391 31.0078C31.2146 31.566 26.4262 33.9326 22.7981 37.489C21.7993 38.4682 20.2006 38.4682 19.2017 37.489Z" fill="#60BCFF"/>
<path d="M10.725 41.1558C12.1437 41.1558 13.2937 40.0058 13.2937 38.5871V33.2829C11.6789 32.4804 9.95738 31.8613 8.15625 31.4526V38.5871C8.15625 40.0058 9.30633 41.1558 10.725 41.1558Z" fill="#60BCFF"/>
</svg>
