<svg width="42" height="42" viewBox="0 0 42 42" fill="none" xmlns="http://www.w3.org/2000/svg">
<path d="M20.9999 0.896973C9.69745 0.896973 0.449951 10.1445 0.449951 21.447C0.449951 32.7495 9.69745 41.9969 20.9999 41.9969C32.3024 41.9969 41.5499 32.7495 41.5499 21.447C41.5499 10.1445 32.3024 0.896973 20.9999 0.896973ZM20.9999 37.887C11.9374 37.887 4.55995 30.5095 4.55995 21.447C4.55995 12.3844 11.9374 5.00697 20.9999 5.00697C30.0625 5.00697 37.4399 12.3844 37.4399 21.447C37.4399 30.5095 30.0625 37.887 20.9999 37.887ZM22.0274 11.172H18.9449V23.502L29.6309 30.078L31.2749 27.4065L22.0274 21.858V11.172Z" fill="#60BCFF"/>
</svg>
