<svg width="15" height="17" viewBox="0 0 15 17" fill="none" xmlns="http://www.w3.org/2000/svg">
<path d="M14.5 11.4658C14.5 11.9345 14.2812 12.3095 14 12.5908V15.122C14.2812 15.3095 14.5 15.622 14.5 15.9658C14.5 16.5283 14.0312 16.9658 13.5 16.9658H3.5C1.8125 16.9658 0.5 15.6533 0.5 13.9658V3.96576C0.5 2.30951 1.8125 0.965759 3.5 0.965759H6.5V6.96576C6.5 7.40326 6.96875 7.62201 7.28125 7.37201L9 5.96576L10.6875 7.34076C11 7.59076 11.5 7.37201 11.5 6.96576V0.965759H13C13.8125 0.965759 14.5 1.65326 14.5 2.46576V11.4658ZM12.5 14.9658V12.9658H3.5C2.9375 12.9658 2.5 13.4345 2.5 13.9658C2.5 14.5283 2.9375 14.9658 3.5 14.9658H12.5Z" fill="#8B8B8B"/>
</svg>
