<svg width="34" height="40" viewBox="0 0 34 40" fill="none" xmlns="http://www.w3.org/2000/svg">
<path d="M31.8469 28.1097C29.389 23.4397 26.9311 24.1771 24.2275 23.9313C24.4732 24.6687 24.4732 25.406 24.4732 26.3892C28.4058 27.3723 29.389 32.0423 29.389 34.746V37.2038H24.4732V34.746H26.9311C26.9311 34.746 26.9311 28.6013 23.2443 28.6013C19.5575 28.6013 19.5575 34.5002 19.5575 34.746H22.0154V37.2038H17.0996V34.746C17.0996 32.0423 18.0828 27.1266 22.0154 26.3892C22.0154 24.9145 21.7696 23.6855 21.5238 23.1939C21.0322 22.9482 20.5406 22.4566 20.5406 21.7192C20.5406 20.2445 22.5069 20.7361 23.9817 18.0324C23.9817 18.0324 26.1938 12.3793 25.4564 7.46354H22.9985C22.9985 6.97196 23.2443 6.72617 23.2443 6.2346C23.2443 5.74302 23.2443 5.49723 22.9985 5.00566H24.9648C24.2275 2.54778 21.7696 0.335693 17.0996 0.335693C12.4296 0.335693 9.97177 2.54778 8.98862 5.25145H10.9549C10.9549 5.74302 10.7091 5.98881 10.7091 6.48038C10.7091 6.97196 10.7091 7.21775 10.9549 7.70932H8.49704C8.00547 12.6251 9.97177 18.2782 9.97177 18.2782C11.4465 20.7361 13.4128 20.2445 13.4128 21.965C13.4128 23.1939 12.1839 23.6855 10.7091 23.9313C10.2176 24.4229 9.72598 25.406 9.72598 27.3723C9.72598 28.3555 9.72598 29.3386 9.72598 30.3218C11.2007 30.8134 12.1839 32.2881 12.1839 33.7628C12.1839 35.4833 10.4633 37.2038 8.49704 37.2038C6.53074 37.2038 4.81023 35.4833 4.81023 33.517C4.81023 31.7965 5.79338 30.5676 7.2681 30.076C7.2681 29.3386 7.2681 28.3555 7.2681 27.1265C7.2681 25.8976 7.51389 24.9145 7.75968 23.9313C6.03916 24.1771 4.07286 24.9145 2.35235 28.1097C0.877622 30.8134 0.140259 39.6617 0.140259 39.6617H33.8132C34.059 39.6617 33.3216 30.8134 31.8469 28.1097ZM13.4128 6.48038C13.4128 4.51408 15.1333 2.79357 17.0996 2.79357C19.0659 2.79357 20.7864 4.51408 20.7864 6.48038C20.7864 8.44669 19.0659 10.1672 17.0996 10.1672C15.1333 10.1672 13.4128 8.44669 13.4128 6.48038Z" fill="#60BCFF"/>
</svg>
