<svg width="19" height="23" viewBox="0 0 19 23" fill="none" xmlns="http://www.w3.org/2000/svg">
<path d="M11.877 1.32422H3.87695C3.34652 1.32422 2.83781 1.53493 2.46274 1.91001C2.08767 2.28508 1.87695 2.79379 1.87695 3.32422V19.3242C1.87695 19.8547 2.08767 20.3634 2.46274 20.7384C2.83781 21.1135 3.34652 21.3242 3.87695 21.3242H15.877C16.4074 21.3242 16.9161 21.1135 17.2912 20.7384C17.6662 20.3634 17.877 19.8547 17.877 19.3242V7.32422L11.877 1.32422Z" stroke="white" stroke-width="2" stroke-linecap="round" stroke-linejoin="round"/>
<path d="M11.877 1.32422V7.32422H17.877" stroke="white" stroke-width="2" stroke-linecap="round" stroke-linejoin="round"/>
<path d="M13.877 12.3242H5.87695" stroke="white" stroke-width="2" stroke-linecap="round" stroke-linejoin="round"/>
<path d="M13.877 16.3242H5.87695" stroke="white" stroke-width="2" stroke-linecap="round" stroke-linejoin="round"/>
<path d="M7.87695 8.32422H6.87695H5.87695" stroke="white" stroke-width="2" stroke-linecap="round" stroke-linejoin="round"/>
</svg>
