<svg width="42" height="42" viewBox="0 0 42 42" fill="none" xmlns="http://www.w3.org/2000/svg">
<path d="M21.0002 0.896973C9.69769 0.896973 0.450195 10.1445 0.450195 21.447C0.450195 32.7495 9.69769 41.9969 21.0002 41.9969C32.3027 41.9969 41.5502 32.7495 41.5502 21.447C41.5502 10.1445 32.3027 0.896973 21.0002 0.896973ZM21.0002 37.887C11.9376 37.887 4.56019 30.5095 4.56019 21.447C4.56019 12.3844 11.9376 5.00697 21.0002 5.00697C30.0627 5.00697 37.4402 12.3844 37.4402 21.447C37.4402 30.5095 30.0627 37.887 21.0002 37.887ZM22.0277 11.172H18.9452V23.502L29.6312 30.078L31.2752 27.4065L22.0277 21.858V11.172Z" fill="#E7CA75"/>
</svg>
