<svg width="25" height="25" viewBox="0 0 25 25" fill="none" xmlns="http://www.w3.org/2000/svg">
<g clip-path="url(#clip0_42_307)">
<path d="M21.7507 7.20478C21.0767 7.48925 20.3617 7.67597 19.6297 7.75875C20.3922 7.32334 20.9777 6.63386 21.2534 5.81235C20.5285 6.22215 19.7354 6.51089 18.9084 6.66608C18.2347 5.98235 17.275 5.55505 16.2128 5.55505C14.1733 5.55505 12.5198 7.13029 12.5198 9.07314C12.5198 9.34892 12.5525 9.6174 12.6154 9.87496C9.54628 9.72819 6.82519 8.32759 5.00374 6.19905C4.68593 6.71866 4.50382 7.32307 4.50382 7.96774C4.50382 9.18835 5.15583 10.2651 6.14667 10.8961C5.56023 10.8786 4.98669 10.7277 4.47394 10.456C4.47373 10.4707 4.47373 10.4855 4.47373 10.5003C4.47373 12.2049 5.74666 13.6268 7.43599 13.95C6.89218 14.0909 6.32177 14.1115 5.76832 14.0103C6.23822 15.408 7.60207 16.4251 9.21799 16.4536C7.95412 17.3972 6.36176 17.9597 4.63165 17.9597C4.33352 17.9597 4.03962 17.943 3.7507 17.9105C5.38498 18.9087 7.32609 19.4911 9.41156 19.4911C16.2042 19.4911 19.9186 14.1302 19.9186 9.48115C19.9186 9.32855 19.9151 9.17683 19.908 9.02598C20.6309 8.52807 21.2549 7.91135 21.7507 7.20478Z" fill="white"/>
</g>
<defs>
<clipPath id="clip0_42_307">
<rect width="18" height="14" fill="white" transform="translate(3.7507 5.5)"/>
</clipPath>
</defs>
</svg>
