<svg width="42" height="42" viewBox="0 0 42 42" fill="none" xmlns="http://www.w3.org/2000/svg">
<path d="M22.011 0.263592C21.365 -0.0133196 20.6335 -0.0133196 19.9873 0.263592L2.00609 7.96984C1.06161 8.37462 0.449219 9.30333 0.449219 10.3309C0.449219 11.3585 1.06161 12.2872 2.00609 12.692L8.7986 15.603C9.04561 15.3232 9.35522 15.0952 9.71233 14.9422L19.9873 10.5386C21.2913 9.97978 22.8014 10.5838 23.3601 11.8878C23.9191 13.1918 23.3149 14.7019 22.011 15.2607L15.0055 18.2631L19.9873 20.3982C20.6335 20.6753 21.365 20.6753 22.011 20.3982L39.9923 12.692C40.9368 12.2872 41.5492 11.3585 41.5492 10.3309C41.5492 9.30333 40.9368 8.37462 39.9923 7.96984L22.011 0.263592Z" fill="#00000"/>
<path d="M3.81399 19.0563L8.15508 20.9167V31.4527C7.27459 31.2531 6.37506 31.1036 5.45971 31.0078C4.25299 30.8812 3.29937 29.9277 3.17283 28.7209C3.07013 27.7414 3.01758 26.7478 3.01758 25.7429C3.01758 23.44 3.29349 21.2006 3.81399 19.0563Z" fill="#00000"/>
<path d="M19.201 37.489C17.4725 35.7947 15.4807 34.3703 13.293 33.283V23.1184L17.9636 25.1202C19.9021 25.951 22.0963 25.951 24.035 25.1202L38.1841 19.0563C38.7046 21.2006 38.9805 23.44 38.9805 25.7429C38.9805 26.7478 38.9278 27.7414 38.8253 28.7209C38.6987 29.9277 37.7451 30.8812 36.5383 31.0078C31.2138 31.566 26.4254 33.9326 22.7973 37.489C21.7986 38.4682 20.1998 38.4682 19.201 37.489Z" fill="#00000"/>
<path d="M10.725 41.1558C12.1437 41.1558 13.2937 40.0058 13.2937 38.5871V33.2829C11.6789 32.4804 9.95738 31.8613 8.15625 31.4526V38.5871C8.15625 40.0058 9.30633 41.1558 10.725 41.1558Z" fill="#00000"/>
</svg>
