<svg width="34" height="40" viewBox="0 0 34 40" fill="none" xmlns="http://www.w3.org/2000/svg">
<path d="M31.8472 28.1097C29.3894 23.4397 26.9315 24.1771 24.2278 23.9313C24.4736 24.6687 24.4736 25.406 24.4736 26.3892C28.4062 27.3723 29.3894 32.0423 29.3894 34.746V37.2038H24.4736V34.746H26.9315C26.9315 34.746 26.9315 28.6013 23.2447 28.6013C19.5579 28.6013 19.5579 34.5002 19.5579 34.746H22.0157V37.2038H17.1V34.746C17.1 32.0423 18.0831 27.1266 22.0157 26.3892C22.0157 24.9145 21.7699 23.6855 21.5242 23.1939C21.0326 22.9482 20.541 22.4566 20.541 21.7192C20.541 20.2445 22.5073 20.7361 23.982 18.0324C23.982 18.0324 26.1941 12.3793 25.4568 7.46354H22.9989C22.9989 6.97196 23.2447 6.72617 23.2447 6.2346C23.2447 5.74302 23.2447 5.49723 22.9989 5.00566H24.9652C24.2278 2.54778 21.7699 0.335693 17.1 0.335693C12.43 0.335693 9.97213 2.54778 8.98898 5.25145H10.9553C10.9553 5.74302 10.7095 5.98881 10.7095 6.48038C10.7095 6.97196 10.7095 7.21775 10.9553 7.70932H8.49741C8.00583 12.6251 9.97213 18.2782 9.97213 18.2782C11.4469 20.7361 13.4132 20.2445 13.4132 21.965C13.4132 23.1939 12.1842 23.6855 10.7095 23.9313C10.2179 24.4229 9.72635 25.406 9.72635 27.3723C9.72635 28.3555 9.72635 29.3386 9.72635 30.3218C11.2011 30.8134 12.1842 32.2881 12.1842 33.7628C12.1842 35.4833 10.4637 37.2038 8.49741 37.2038C6.53111 37.2038 4.81059 35.4833 4.81059 33.517C4.81059 31.7965 5.79374 30.5676 7.26847 30.076C7.26847 29.3386 7.26847 28.3555 7.26847 27.1265C7.26847 25.8976 7.51426 24.9145 7.76004 23.9313C6.03953 24.1771 4.07323 24.9145 2.35271 28.1097C0.877988 30.8134 0.140625 39.6617 0.140625 39.6617H33.8135C34.0593 39.6617 33.322 30.8134 31.8472 28.1097ZM13.4132 6.48038C13.4132 4.51408 15.1337 2.79357 17.1 2.79357C19.0663 2.79357 20.7868 4.51408 20.7868 6.48038C20.7868 8.44669 19.0663 10.1672 17.1 10.1672C15.1337 10.1672 13.4132 8.44669 13.4132 6.48038Z" fill="#E7CA75"/>
</svg>
