<svg width="42" height="42" viewBox="0 0 42 42" fill="none" xmlns="http://www.w3.org/2000/svg">
<path d="M22.012 0.263592C21.366 -0.0133196 20.6345 -0.0133196 19.9883 0.263592L2.00706 7.96984C1.06259 8.37462 0.450195 9.30333 0.450195 10.3309C0.450195 11.3585 1.06259 12.2872 2.00706 12.692L8.79958 15.603C9.04659 15.3232 9.3562 15.0952 9.71331 14.9422L19.9883 10.5386C21.2922 9.97978 22.8024 10.5838 23.3611 11.8878C23.9201 13.1918 23.3159 14.7019 22.012 15.2607L15.0065 18.2631L19.9883 20.3982C20.6345 20.6753 21.366 20.6753 22.012 20.3982L39.9933 12.692C40.9378 12.2872 41.5502 11.3585 41.5502 10.3309C41.5502 9.30333 40.9378 8.37462 39.9933 7.96984L22.012 0.263592Z" fill="#E7CA75"/>
<path d="M3.81497 19.0563L8.15605 20.9167V31.4527C7.27556 31.2531 6.37604 31.1036 5.46069 31.0078C4.25397 30.8812 3.30035 29.9277 3.17381 28.7209C3.07111 27.7414 3.01855 26.7478 3.01855 25.7429C3.01855 23.44 3.29446 21.2006 3.81497 19.0563Z" fill="#E7CA75"/>
<path d="M19.202 37.489C17.4735 35.7947 15.4817 34.3703 13.2939 33.283V23.1184L17.9645 25.1202C19.9031 25.951 22.0973 25.951 24.0359 25.1202L38.1851 19.0563C38.7055 21.2006 38.9814 23.44 38.9814 25.7429C38.9814 26.7478 38.9288 27.7414 38.8263 28.7209C38.6996 29.9277 37.7461 30.8812 36.5393 31.0078C31.2148 31.566 26.4264 33.9326 22.7983 37.489C21.7996 38.4682 20.2008 38.4682 19.202 37.489Z" fill="#E7CA75"/>
<path d="M10.725 41.1558C12.1437 41.1558 13.2937 40.0058 13.2937 38.5871V33.2829C11.6789 32.4804 9.95738 31.8613 8.15625 31.4526V38.5871C8.15625 40.0058 9.30633 41.1558 10.725 41.1558Z" fill="#E7CA75"/>
</svg>
