<svg width="25" height="25" viewBox="0 0 25 25" fill="none" xmlns="http://www.w3.org/2000/svg">
<g clip-path="url(#clip0_42_303)">
<path d="M8.38366 19.4999V9.37941H4.95336V19.4999H8.38366ZM6.66896 7.9968C7.86516 7.9968 8.60975 7.21966 8.60975 6.2485C8.58746 5.25544 7.86521 4.49988 6.69166 4.49988C5.51829 4.49988 4.75098 5.25546 4.75098 6.2485C4.75098 7.21971 5.49537 7.9968 6.64656 7.9968H6.66885H6.66896ZM10.2823 19.4999H13.7126V13.8481C13.7126 13.5456 13.7349 13.2435 13.8255 13.0273C14.0735 12.4229 14.6379 11.797 15.5855 11.797C16.8268 11.797 17.3234 12.7251 17.3234 14.0856V19.4998H20.7535V13.6968C20.7535 10.5882 19.0611 9.14181 16.8042 9.14181C14.9537 9.14181 14.1412 10.1561 13.6898 10.847H13.7127V9.3792H10.2824C10.3274 10.3288 10.2824 19.4997 10.2824 19.4997L10.2823 19.4999Z" fill="white"/>
</g>
<defs>
<clipPath id="clip0_42_303">
<rect width="16" height="15" fill="white" transform="translate(4.75098 4.5)"/>
</clipPath>
</defs>
</svg>
